<svg version="1" xmlns="http://www.w3.org/2000/svg" width="1600" height="1600" viewBox="0 0 1200.000000 1200.000000"><path d="M198 130.3c-.3.3-5.7.8-12 1.1-32.3 1.4-68.8 12.3-102.5 30.7-13.1 7.1-14.2 8-17.2 13-3.1 5-3.3 5.8-3.3 14.9v9.7l6.3 1.8c3.4 1 6.7 2.1 7.2 2.4 1.3.7 93 31.6 101.3 34.1 12.4 3.7 13.9 4.7 16.1 10.9 4.7 13 4.8 12.7-1.3 33.6-9.4 32.6-10.5 35.5-15.3 39.1-3.4 2.6-5.4 3.3-11.7 3.9-8.2.7-9.6.4-9.6-2.5 0-3.9-2.3-6.9-6.4-8.4-2.3-.9-26.4-7.7-53.6-15.2-27.2-7.4-53.3-14.7-57.9-16-4.6-1.3-8.8-2.1-9.3-1.8-.6.4-2.3 3.5-3.9 7.1-2.5 5.6-2.9 7.7-2.9 15.6 0 8.4.3 9.9 3.7 17.7 2.1 4.7 6.4 13.7 9.6 20 17 33.1 25.3 42.4 63.2 70.6 13.6 10.1 12.3 9.2 28.2 19.8 6.5 4.4 12.1 8.2 12.5 8.6.7.5-1.3 8.6-3.1 12.5-2 4.2-7.1 24.3-7.1 28 0 2.1.7 4.6 1.5 5.5 1.4 1.5 1.4 2.1 0 5.3-1.7 4.1-1.9 7.3-.6 8.2 1.6.9 15.4 2.4 38.1 4 11.8.8 22.7 1.7 24.2 2 1.5.3 24 .9 50 1.5 45.3.9 62.6 1.9 71.3 4 2.2.5 9.6 1.9 16.4 3 23.7 3.9 38.5 10.2 71.1 30.3 25.4 15.7 46.1 29.8 59.5 40.3 10.1 8 37.4 29.3 43.9 34.2 2.6 2 8.7 6.8 13.5 10.5 10.3 8.1 9.4 7.5 26.7 20.7 7.5 5.8 18.4 14.3 24.3 18.9 5.8 4.6 13.8 10.8 17.6 13.7 3.9 2.9 12 9.1 18 13.9 19.7 15.3 57.7 44.8 67 52 5 3.8 12.6 9.7 16.8 13 13.1 10.3 29.3 22.8 34.3 26.7 6.5 5 37.8 29.4 47.9 37.3 4.4 3.5 14.8 11.5 23 17.9 8.3 6.4 16.1 12.5 17.5 13.6 2.4 1.9 16.3 12.7 41.3 32.3 6.5 5.1 13.5 10.5 15.6 12.2 2.1 1.6 8.2 6.4 13.6 10.5 5.3 4.1 10.2 7.9 10.8 8.5.7.5 2.8 2.2 4.7 3.7 4.2 3.2 21.9 16.9 35.4 27.5 5.5 4.3 12.5 9.8 15.7 12.3 3.1 2.5 11.1 8.7 17.6 13.7 6.5 5.1 17.9 14 25.3 19.8 7.4 5.8 14.6 11.4 16 12.5 5 3.9 28 21.5 30.2 23.1 1.3.9 8.3 6.2 15.6 11.8 17.8 13.5 21.6 15.4 40.5 19.6 26.5 5.9 60-6.2 74.9-27 5-7 11-19.4 14.4-30 2.7-8.5 2.9-10 2.9-25.5-.1-18.3-.8-21.8-8.3-37-3.6-7.4-14.5-23-16-23-.4 0-2.1-1.2-3.8-2.8-5.4-4.9-13.7-11.2-26.4-20-4.7-3.2-10.5-7.3-13-9.1-2.5-1.7-7.4-5.1-11-7.5-3.6-2.4-11.4-7.9-17.5-12.1-6-4.2-13.9-9.7-17.5-12.1-3.6-2.4-8.3-5.6-10.5-7.2-2.2-1.5-9.5-6.6-16.3-11.3-6.7-4.6-16.6-11.4-22-15.2-5.3-3.7-12.6-8.7-16.2-11.1-8.5-5.7-26.1-17.9-43-29.6-7.4-5.1-18.2-12.5-23.9-16.4-5.7-3.9-12.7-8.7-15.5-10.6-2.8-2-10.9-7.6-18.1-12.5-24.8-17-30-20.6-41-28.2-6-4.2-15-10.4-20-13.8-24-16.4-29.3-20-32.5-22.5-1.9-1.5-4.8-3.5-6.5-4.4-1.6-.9-7-4.6-12-8.1-11.2-8-9.2-6.7-27-18.8-15.2-10.3-34.7-23.7-52-35.7-5.2-3.6-16.9-11.7-26.1-18-9.1-6.3-27.6-19.2-41-28.5-13.4-9.4-30.2-21.1-37.4-26-7.2-5-15.9-11-19.4-13.5-3.6-2.5-11.7-8.1-18.1-12.5-6.4-4.4-14.5-10-18-12.5-3.4-2.5-12.5-8.8-20-14-7.6-5.2-14.3-10-14.9-10.5-.6-.6-2.7-2.2-4.6-3.5-17.8-12.5-55.6-44.5-67.7-57.4-20.6-21.9-38.8-50.2-54.3-84.1-11.6-25.7-16.4-36.1-21.4-46.7-2-4.3-3.6-8-3.6-8.3 0-.2-2.7-6.1-6-13.1-3.3-6.9-6-12.8-6-12.9 0-.2-1.8-4.3-4.1-9.2-2.2-4.8-5.2-11.5-6.7-14.8-3.9-8.7-14.9-30.3-18-35.3-6.7-10.8-15.3-21.5-24.7-30.7-15.6-15.4-27.6-22.7-46.6-28.6-10.3-3.2-10.7-3.3-34.4-3.7-13.2-.2-24.2-.1-24.5.1z"/></svg>