<svg version="1" xmlns="http://www.w3.org/2000/svg" width="533.333" height="533.333" viewBox="0 0 400.000000 400.000000"><path d="M186.4 59c-37.8 3.7-76.8 19.2-106.4 42.3-15.1 11.8-33 30.9-44.4 47.3l-5.5 7.9 6.6 6.7 6.6 6.6 5.7-7.1c7.4-9.4 25.4-26.7 35.3-34.1 57.5-42.9 132.9-51.6 198.4-22.7 11 4.8 24.6 12.7 36.5 21.1 8.9 6.2 31.1 27.2 37.7 35.5l3.1 4 7.5-7.5c4.1-4.1 7.5-7.8 7.5-8.2 0-1.2-12.8-17.8-19.9-25.7-3.6-4.1-11.5-11.6-17.4-16.7-30-25.8-65.2-42.1-103.3-47.9-12.6-1.9-36.2-2.6-48-1.5z"/><path d="M181.5 134.5c-40.8 6.7-75.2 26.9-100.4 58.9l-6.2 7.9 7.7 7.8 7.7 7.8 2.9-4c5.2-7.2 18.1-20 26.8-26.6 10.3-7.8 31.2-18.3 43.5-21.8 25.3-7.3 52.6-7.3 78 0 12.1 3.4 33.1 14 43.5 21.9 8.1 6.1 19.8 17.5 25.1 24.3l2.4 3.3 7.9-7.9 7.9-8-4.3-5.6c-6.3-8.1-19.9-21.5-28.5-28-19.6-14.7-41.4-24.4-65.5-29-11.9-2.3-37.2-2.8-48.5-1z"/><path d="M187.7 204c-13.5 2.4-28.1 8.6-39.2 16.5-6.9 4.9-18.7 16.9-23.3 23.6l-3.1 4.6 7.2 7.1c4 4 7.5 7.2 7.9 7.2.3 0 2-2.2 3.8-5 4-6.3 16-17.4 23.5-21.9 8.1-4.9 20.1-8.9 30.3-10.1 25.5-3.1 51.1 7.2 67.8 27.3l4.8 5.7 6.8-6.7 6.7-6.6-2.2-3.1c-3.8-5.6-16.1-17.7-22.2-22.1-8.4-6-18.9-11-29.2-14.1-7-2-11.5-2.7-21.8-2.9-7.1-.2-15.2 0-17.8.5zM197.3 270c-9.8 2.1-18.6 9.2-23.2 18.9-2.1 4.6-2.6 7-2.6 13.6 0 7.1.4 8.9 3.3 14.7 3.6 7.3 8.7 12.4 16.1 16 7 3.5 18.7 3.3 26.2-.5 6.6-3.2 13.2-9.9 16.2-16.5 3.2-6.8 3.1-20.8-.1-27.3-6.9-13.9-21.9-21.8-35.9-18.9z"/></svg>